<svg width="120" height="25" viewBox="0 0 120 25" fill="none" xmlns="http://www.w3.org/2000/svg">
<g id="Group">
<path id="Vector" d="M71.5868 20.43L53.3073 19.8682L68.5173 13.8807V10.3496L53.5276 4.35506L71.5868 3.80032V0.594727H50.1836V6.38183L64.6312 12.17L50.1836 17.8485V23.6356H71.5868V20.43Z" fill="#0B52D4"/>
<path id="Vector_2" d="M47.3024 0.594727H25.002V7.15552L39.5768 12.1154L25.002 17.0748V23.6356H47.3024V19.6841L28.6496 19.1108L43.4804 14.0712V10.1618L28.665 5.11892L47.3024 4.54671V0.594727Z" fill="#0B52D4"/>
<path id="Vector_3" d="M21.4936 0.594727H0V5.99963L16.9777 5.47819L0 16.3071V23.6356H21.4936V18.8913L4.09932 18.3568L21.4936 7.26308V0.594727Z" fill="#0B52D4"/>
<path id="Vector_4" d="M107.838 0C101.132 0 95.6758 5.43493 95.6758 12.1153C95.6758 18.7957 101.132 24.2306 107.838 24.2306C114.544 24.2306 119.999 18.7957 119.999 12.1153C119.999 5.43493 114.543 0 107.838 0ZM117.273 12.1153C117.273 17.298 113.04 21.5148 107.837 21.5148C102.635 21.5148 98.4015 17.298 98.4015 12.1153C98.4015 6.93262 102.635 2.71583 107.837 2.71583C113.04 2.71583 117.273 6.93262 117.273 12.1153Z" fill="#0B52D4"/>
<path id="Vector_5" d="M88.6409 14.0843C88.6793 14.0734 88.7176 14.0625 88.7555 14.0516C91.8956 13.1212 93.5591 10.7575 93.695 7.97289C93.7076 7.80308 93.7148 7.63218 93.7148 7.4591C93.7148 4.5134 92.0458 1.97776 88.7659 1.00587C87.8319 0.729044 86.6918 0.594727 85.5145 0.594727H74.3418V23.635H77.5554V3.61741L84.8633 3.52623C85.691 3.50985 86.2813 3.53988 86.8678 3.60704C87.5387 3.68402 88.6014 3.93082 89.4636 4.67666C90.562 5.62616 90.7051 6.78588 90.7051 7.46019C90.7051 7.5066 90.7051 7.55301 90.7056 7.59942C90.7056 8.27319 90.5516 9.43345 89.4532 10.383C89.3419 10.4791 88.9983 10.734 88.5823 10.9563C88.2068 11.1572 87.7568 11.3286 87.6384 11.3734C87.4055 11.4613 86.3915 11.8113 84.9214 11.9625C83.4782 12.1111 81.9348 12.0712 81.9348 12.0712C81.5105 12.0696 80.4642 12.0685 80.2334 12.0712V15.2391C80.6308 15.2413 80.9915 15.2495 81.2935 15.2599C81.6037 15.2637 81.9112 15.279 82.216 15.3046C82.222 15.3046 82.2253 15.3052 82.2253 15.3052C87.2207 15.7343 91.3891 19.089 92.9913 23.6361H96.2399C95.1037 19.5274 92.3187 16.0925 88.642 14.0849L88.6409 14.0843Z" fill="#0B52D4"/>
</g>
</svg>
